<mxfile host="app.diagrams.net" agent="Mozilla/5.0 (Windows NT 10.0; Win64; x64) AppleWebKit/537.36 (KHTML, like Gecko) Chrome/129.0.0.0 Safari/537.36" version="24.7.14">
  <diagram name="PÃ¡gina-1" id="abJAQa0zbJsf09PqhtKi">
    <mxGraphModel dx="1290" dy="557" grid="1" gridSize="10" guides="1" tooltips="1" connect="1" arrows="1" fold="1" page="1" pageScale="1" pageWidth="827" pageHeight="1169" math="0" shadow="0">
      <root>
        <mxCell id="0" />
        <mxCell id="1" parent="0" />
        <mxCell id="xKaJrzAjjyIe3hL2cJAd-5" style="edgeStyle=orthogonalEdgeStyle;rounded=0;orthogonalLoop=1;jettySize=auto;html=1;exitX=0.5;exitY=1;exitDx=0;exitDy=0;entryX=0.5;entryY=0;entryDx=0;entryDy=0;" edge="1" parent="1" source="xKaJrzAjjyIe3hL2cJAd-1" target="xKaJrzAjjyIe3hL2cJAd-2">
          <mxGeometry relative="1" as="geometry" />
        </mxCell>
        <mxCell id="xKaJrzAjjyIe3hL2cJAd-6" style="edgeStyle=orthogonalEdgeStyle;rounded=0;orthogonalLoop=1;jettySize=auto;html=1;exitX=0.5;exitY=1;exitDx=0;exitDy=0;entryX=0.5;entryY=0;entryDx=0;entryDy=0;" edge="1" parent="1" source="xKaJrzAjjyIe3hL2cJAd-1" target="xKaJrzAjjyIe3hL2cJAd-3">
          <mxGeometry relative="1" as="geometry" />
        </mxCell>
        <mxCell id="xKaJrzAjjyIe3hL2cJAd-7" style="edgeStyle=orthogonalEdgeStyle;rounded=0;orthogonalLoop=1;jettySize=auto;html=1;exitX=0.5;exitY=1;exitDx=0;exitDy=0;entryX=0.5;entryY=0;entryDx=0;entryDy=0;" edge="1" parent="1" source="xKaJrzAjjyIe3hL2cJAd-1" target="xKaJrzAjjyIe3hL2cJAd-4">
          <mxGeometry relative="1" as="geometry" />
        </mxCell>
        <mxCell id="xKaJrzAjjyIe3hL2cJAd-1" value="&lt;font style=&quot;font-size: 24px;&quot;&gt;PROJETO&lt;/font&gt;" style="rounded=0;whiteSpace=wrap;html=1;" vertex="1" parent="1">
          <mxGeometry x="349" y="130" width="146" height="60" as="geometry" />
        </mxCell>
        <mxCell id="xKaJrzAjjyIe3hL2cJAd-2" value="&lt;font style=&quot;font-size: 18px;&quot;&gt;Aplicativo&lt;/font&gt;" style="rounded=0;whiteSpace=wrap;html=1;" vertex="1" parent="1">
          <mxGeometry x="162" y="240" width="120" height="60" as="geometry" />
        </mxCell>
        <mxCell id="xKaJrzAjjyIe3hL2cJAd-3" value="&lt;font style=&quot;font-size: 18px;&quot;&gt;Desktop&lt;/font&gt;" style="rounded=0;whiteSpace=wrap;html=1;" vertex="1" parent="1">
          <mxGeometry x="362" y="240" width="120" height="60" as="geometry" />
        </mxCell>
        <mxCell id="xKaJrzAjjyIe3hL2cJAd-4" value="&lt;span style=&quot;font-size: 18px;&quot;&gt;Site&lt;/span&gt;" style="rounded=0;whiteSpace=wrap;html=1;" vertex="1" parent="1">
          <mxGeometry x="562" y="240" width="120" height="60" as="geometry" />
        </mxCell>
        <mxCell id="xKaJrzAjjyIe3hL2cJAd-8" value="&lt;font style=&quot;font-size: 36px;&quot;&gt;Estrura Analitica do Projeto - (EAP)&lt;/font&gt;" style="text;html=1;align=center;verticalAlign=middle;whiteSpace=wrap;rounded=0;" vertex="1" parent="1">
          <mxGeometry x="137" y="50" width="570" height="30" as="geometry" />
        </mxCell>
      </root>
    </mxGraphModel>
  </diagram>
</mxfile>
